# This file uses centimeters as units for non-parametric coordinates.

mtllib Sailboat.mtl
g default
v 3.497769 3.421318 -0.036424
v -1.099596 3.421318 -0.036424
v -4.862799 3.421318 -0.036424
v 1.508477 4.944570 -0.036424
v -1.099599 4.944569 -0.036424
v -3.890420 4.944570 -0.036424
v 0.180479 6.467821 -0.036424
v -1.099596 6.467821 -0.036424
v -2.697007 6.467821 -0.036424
v -0.703602 7.991072 -0.036424
v -1.099596 7.991074 -0.036424
v -1.103204 7.991074 -0.036424
vt 0.000000 0.000000
vt 0.333333 0.000000
vt 0.666667 0.000000
vt 0.000000 0.333333
vt 0.333333 0.333333
vt 0.666667 0.333333
vt 0.000000 0.666667
vt 0.333333 0.666667
vt 0.666667 0.666667
vt 0.000000 1.000000
vt 0.333333 1.000000
vt 0.666667 1.000000
vn 0.000000 0.000000 -1.000000
vn 0.000000 0.000000 -1.000000
vn 0.000000 0.000000 -1.000000
vn 0.000000 0.000000 -1.000000
vn 0.000000 0.000000 -1.000000
vn 0.000000 0.000000 -1.000000
vn 0.000000 0.000000 -1.000000
vn 0.000000 0.000000 -1.000000
vn 0.000000 0.000000 -1.000000
vn 0.000000 0.000000 -1.000000
vn 0.000000 0.000000 -1.000000
vn 0.000000 0.000000 -1.000000
s 1
g pPlane2
usemtl initialShadingGroup
f 1/1/1 2/2/2 5/5/3 4/4/4
f 2/2/2 3/3/5 6/6/6 5/5/3
f 4/4/4 5/5/3 8/8/7 7/7/8
f 5/5/3 6/6/6 9/9/9 8/8/7
f 7/7/8 8/8/7 11/11/10 10/10/11
f 8/8/7 9/9/9 12/12/12 11/11/10
g default
v -0.697244 1.065198 -0.157631
v -0.859397 1.065198 -0.222924
v -1.021549 1.065198 -0.157631
v -1.088715 1.065198 0.000000
v -1.021549 1.065198 0.157631
v -0.859397 1.065198 0.222924
v -0.697244 1.065198 0.157631
v -0.630078 1.065198 0.000000
v -0.697244 8.063014 -0.157631
v -0.859397 8.063014 -0.222924
v -1.021549 8.063014 -0.157631
v -1.088715 8.063014 0.000000
v -1.021549 8.063014 0.157631
v -0.859397 8.063014 0.222924
v -0.697244 8.063014 0.157631
v -0.630078 8.063014 0.000000
v -0.859397 1.065198 0.000000
v -0.859397 8.063014 0.000000
vt 0.610485 0.045765
vt 0.500000 0.000000
vt 0.389515 0.045765
vt 0.343750 0.156250
vt 0.389515 0.266735
vt 0.500000 0.312500
vt 0.610485 0.266735
vt 0.656250 0.156250
vt 0.375000 0.312500
vt 0.406250 0.312500
vt 0.437500 0.312500
vt 0.468750 0.312500
vt 0.500000 0.312500
vt 0.531250 0.312500
vt 0.562500 0.312500
vt 0.593750 0.312500
vt 0.625000 0.312500
vt 0.375000 0.688440
vt 0.406250 0.688440
vt 0.437500 0.688440
vt 0.468750 0.688440
vt 0.500000 0.688440
vt 0.531250 0.688440
vt 0.562500 0.688440
vt 0.593750 0.688440
vt 0.625000 0.688440
vt 0.610485 0.733265
vt 0.500000 0.687500
vt 0.389515 0.733265
vt 0.343750 0.843750
vt 0.389515 0.954235
vt 0.500000 1.000000
vt 0.610485 0.954235
vt 0.656250 0.843750
vt 0.500000 0.150000
vt 0.500000 0.837500
vn 0.373520 0.000000 -0.927622
vn 0.373520 0.000000 -0.927622
vn 0.373520 0.000000 -0.927622
vn 0.373520 0.000000 -0.927622
vn -0.373520 0.000000 -0.927622
vn -0.373520 0.000000 -0.927622
vn -0.373520 0.000000 -0.927622
vn -0.373520 0.000000 -0.927622
vn -0.919968 0.000000 -0.391994
vn -0.919968 0.000000 -0.391994
vn -0.919968 0.000000 -0.391994
vn -0.919968 0.000000 -0.391994
vn -0.919968 0.000000 0.391994
vn -0.919968 0.000000 0.391994
vn -0.919968 0.000000 0.391994
vn -0.919968 0.000000 0.391994
vn -0.373520 0.000000 0.927622
vn -0.373520 0.000000 0.927622
vn -0.373520 0.000000 0.927622
vn -0.373520 0.000000 0.927622
vn 0.373520 0.000000 0.927622
vn 0.373520 0.000000 0.927622
vn 0.373520 0.000000 0.927622
vn 0.373520 0.000000 0.927622
vn 0.919968 0.000000 0.391994
vn 0.919968 0.000000 0.391994
vn 0.919968 0.000000 0.391994
vn 0.919968 0.000000 0.391994
vn 0.919968 0.000000 -0.391994
vn 0.919968 0.000000 -0.391994
vn 0.919968 0.000000 -0.391994
vn 0.919968 0.000000 -0.391994
vn 0.000000 -1.000000 0.000000
vn 0.000000 -1.000000 0.000000
vn 0.000000 -1.000000 0.000000
vn 0.000000 -1.000000 0.000000
vn 0.000000 -1.000000 0.000000
vn 0.000000 -1.000000 0.000000
vn 0.000000 -1.000000 0.000000
vn 0.000000 -1.000000 0.000000
vn 0.000000 -1.000000 0.000000
vn 0.000000 1.000000 0.000000
vn 0.000000 1.000000 0.000000
vn 0.000000 1.000000 0.000000
vn 0.000000 1.000000 0.000000
vn 0.000000 1.000000 0.000000
vn 0.000000 1.000000 0.000000
vn 0.000000 1.000000 0.000000
vn 0.000000 1.000000 0.000000
vn 0.000000 1.000000 0.000000
s off
g pCylinder1
usemtl initialShadingGroup
f 13/21/13 14/22/14 22/31/15 21/30/16
f 14/22/17 15/23/18 23/32/19 22/31/20
f 15/23/21 16/24/22 24/33/23 23/32/24
f 16/24/25 17/25/26 25/34/27 24/33/28
f 17/25/29 18/26/30 26/35/31 25/34/32
f 18/26/33 19/27/34 27/36/35 26/35/36
f 19/27/37 20/28/38 28/37/39 27/36/40
f 20/28/41 13/29/42 21/38/43 28/37/44
s 1
f 14/14/45 13/13/46 29/47/47
f 15/15/48 14/14/45 29/47/47
f 16/16/49 15/15/48 29/47/47
f 17/17/50 16/16/49 29/47/47
f 18/18/51 17/17/50 29/47/47
f 19/19/52 18/18/51 29/47/47
f 20/20/53 19/19/52 29/47/47
f 13/13/46 20/20/53 29/47/47
s 2
f 21/45/54 22/44/55 30/48/56
f 22/44/55 23/43/57 30/48/56
f 23/43/57 24/42/58 30/48/56
f 24/42/58 25/41/59 30/48/56
f 25/41/59 26/40/60 30/48/56
f 26/40/60 27/39/61 30/48/56
f 27/39/61 28/46/62 30/48/56
f 28/46/62 21/45/54 30/48/56
g default
v 1.216784 1.741880 1.501259
v 1.866446 1.741880 1.501259
v 1.216784 2.051349 1.501259
v 1.866446 2.051349 1.501259
v 1.216784 2.051349 -1.501259
v 1.866446 2.051349 -1.501259
v 1.216784 1.741880 -1.501259
v 1.866446 1.741880 -1.501259
vt 0.375000 0.000000
vt 0.625000 0.000000
vt 0.375000 0.250000
vt 0.625000 0.250000
vt 0.375000 0.500000
vt 0.625000 0.500000
vt 0.375000 0.750000
vt 0.625000 0.750000
vt 0.375000 1.000000
vt 0.625000 1.000000
vt 0.875000 0.000000
vt 0.875000 0.250000
vt 0.125000 0.000000
vt 0.125000 0.250000
vn 0.000000 0.000000 1.000000
vn 0.000000 0.000000 1.000000
vn 0.000000 0.000000 1.000000
vn 0.000000 0.000000 1.000000
vn 0.000000 1.000000 0.000000
vn 0.000000 1.000000 0.000000
vn 0.000000 1.000000 0.000000
vn 0.000000 1.000000 0.000000
vn 0.000000 0.000000 -1.000000
vn 0.000000 0.000000 -1.000000
vn 0.000000 0.000000 -1.000000
vn 0.000000 0.000000 -1.000000
vn 0.000000 -1.000000 0.000000
vn 0.000000 -1.000000 0.000000
vn 0.000000 -1.000000 0.000000
vn 0.000000 -1.000000 0.000000
vn 1.000000 0.000000 0.000000
vn 1.000000 0.000000 0.000000
vn 1.000000 0.000000 0.000000
vn 1.000000 0.000000 0.000000
vn -1.000000 0.000000 0.000000
vn -1.000000 0.000000 0.000000
vn -1.000000 0.000000 0.000000
vn -1.000000 0.000000 0.000000
s off
g pCube3
usemtl initialShadingGroup
f 31/49/63 32/50/64 34/52/65 33/51/66
f 33/51/67 34/52/68 36/54/69 35/53/70
f 35/53/71 36/54/72 38/56/73 37/55/74
f 37/55/75 38/56/76 32/58/77 31/57/78
f 32/50/79 38/59/80 36/60/81 34/52/82
f 37/61/83 31/49/84 33/51/85 35/62/86
g default
v -4.850666 3.421318 0.000000
v -0.672762 3.421318 0.000000
v 3.538569 3.421318 0.000000
v -3.874529 4.944570 0.000000
v -0.672760 4.944569 0.000000
v 1.504313 4.944570 0.000000
v -2.660368 6.467821 -0.000000
v -0.672762 6.467821 -0.000000
v 0.176791 6.467821 -0.000000
v -1.026241 7.991072 -0.000000
v -0.672762 7.991074 -0.000000
v -0.669155 7.991074 -0.000000
vt 0.000000 0.000000
vt 0.333333 0.000000
vt 0.666667 0.000000
vt 0.000000 0.333333
vt 0.333333 0.333333
vt 0.666667 0.333333
vt 0.000000 0.666667
vt 0.333333 0.666667
vt 0.666667 0.666667
vt 0.000000 1.000000
vt 0.333333 1.000000
vt 0.666667 1.000000
vn 0.000000 0.000000 1.000000
vn 0.000000 0.000000 1.000000
vn 0.000000 0.000000 1.000000
vn 0.000000 0.000000 1.000000
vn -0.000000 0.000000 1.000000
vn -0.000000 0.000000 1.000000
vn 0.000000 0.000000 1.000000
vn -0.000000 0.000000 1.000000
vn 0.000000 0.000000 1.000000
vn 0.000000 0.000000 1.000000
vn -0.000000 0.000000 1.000000
vn 0.000000 0.000000 1.000000
s 1
g pPlane1
usemtl initialShadingGroup
f 39/63/87 40/64/88 43/67/89 42/66/90
f 40/64/88 41/65/91 44/68/92 43/67/89
f 42/66/90 43/67/89 46/70/93 45/69/94
f 43/67/89 44/68/92 47/71/95 46/70/93
f 45/69/94 46/70/93 49/73/96 48/72/97
f 46/70/93 47/71/95 50/74/98 49/73/96
g default
v -4.301518 -0.124431 0.302394
v 3.653066 0.540601 1.370674
v -6.390892 2.446645 0.302394
v 4.098239 2.448657 0.290494
v -6.305010 2.446645 -0.305814
v 4.098239 2.448657 -0.206106
v -4.282693 0.239709 -0.305814
v 3.465456 0.453880 -1.387924
v 2.204781 2.197244 -2.028638
v 2.111836 0.222103 -1.190323
v 2.271517 0.226706 1.175598
v 2.189267 2.194949 1.959153
v 2.200998 2.196685 -1.395795
v -6.325951 2.446645 -0.157509
v -4.287284 0.150917 -0.157509
v 2.150772 0.223225 -0.613419
v 3.511202 0.475026 -0.715271
v 4.098239 2.448657 -0.085016
v 2.192868 2.195482 1.373361
v -6.370957 2.446645 0.161214
v -4.297148 -0.039905 0.161214
v 2.234451 0.225638 0.626407
v 3.609517 0.520471 0.730332
v 4.098239 2.448657 0.175220
v 2.196627 0.614593 0.067323
v -6.350150 2.446645 0.013857
v -4.292588 0.048319 0.013857
v 2.195763 0.224522 0.053192
v 3.564063 0.499460 0.061980
v 4.098239 2.448657 0.054904
vt 0.375000 0.000000
vt 0.625000 0.000000
vt 0.375000 0.250000
vt 0.625000 0.250000
vt 0.375000 0.500000
vt 0.625000 0.500000
vt 0.375000 0.750000
vt 0.625000 0.750000
vt 0.375000 1.000000
vt 0.625000 1.000000
vt 0.875000 0.000000
vt 0.875000 0.250000
vt 0.125000 0.000000
vt 0.125000 0.250000
vt 0.579348 0.500000
vt 0.579348 0.750000
vt 0.579348 0.000000
vt 0.579348 1.000000
vt 0.579348 0.250000
vt 0.579348 0.439040
vt 0.185960 0.250000
vt 0.375000 0.439040
vt 0.185960 0.000000
vt 0.375000 0.810960
vt 0.579348 0.810960
vt 0.625000 0.810960
vt 0.814040 0.000000
vt 0.625000 0.439040
vt 0.814040 0.250000
vt 0.579348 0.308031
vt 0.316969 0.250000
vt 0.375000 0.308031
vt 0.316969 0.000000
vt 0.375000 0.941969
vt 0.579348 0.941969
vt 0.625000 0.941969
vt 0.683031 0.000000
vt 0.625000 0.308031
vt 0.683031 0.250000
vt 0.579348 0.368601
vt 0.256399 0.250000
vt 0.375000 0.368601
vt 0.256399 0.000000
vt 0.375000 0.881399
vt 0.579348 0.881399
vt 0.625000 0.881399
vt 0.743601 0.000000
vt 0.625000 0.368601
vt 0.743601 0.250000
vn -0.158286 -0.241008 0.957528
vn -0.154466 -0.245679 0.956965
vn -0.075368 -0.193632 0.978175
vn -0.158286 -0.241008 0.957528
vn 0.029039 0.999577 0.001672
vn 0.015786 0.999874 0.001542
vn 0.004178 0.838404 -0.545033
vn 0.121718 0.773433 -0.622082
vn -0.170651 -0.268754 -0.947971
vn -0.065862 -0.219835 -0.973311
vn -0.165968 -0.274411 -0.947182
vn -0.170651 -0.268754 -0.947971
vn 0.048506 -0.991327 -0.122137
vn 0.093016 -0.991702 -0.088742
vn 0.115339 -0.990240 -0.078246
vn 0.059138 -0.990697 -0.122564
vn 0.965482 -0.255851 -0.048828
vn 0.964795 -0.258453 -0.048720
vn 0.964653 -0.258986 -0.048697
vn 0.965482 -0.255851 -0.048828
vn -0.745513 -0.618144 -0.249216
vn -0.747827 -0.615573 -0.248645
vn -0.747827 -0.615573 -0.248645
vn -0.743489 -0.620378 -0.249710
vn 0.211404 -0.198826 -0.956962
vn 0.209916 -0.977714 0.003198
vn 0.215338 -0.976536 0.002810
vn 0.180285 -0.184179 0.966217
vn 0.611216 0.277098 0.741372
vn -0.502721 0.613875 -0.608629
vn -0.131674 0.991293 0.000077
vn 0.122070 0.790458 0.600229
vn 0.002622 0.861947 0.506991
vn 0.016656 0.999860 0.001527
vn 0.029585 0.999561 0.001652
vn -0.717917 -0.647495 -0.255627
vn -0.726368 -0.638754 -0.253739
vn -0.723948 -0.641278 -0.254286
vn -0.717917 -0.647495 -0.255627
vn -0.008263 -0.992785 -0.119624
vn 0.056605 -0.995485 -0.076188
vn 0.052556 -0.994860 -0.086555
vn 0.005574 -0.992725 -0.120272
vn 0.182923 -0.983114 0.005123
vn 0.176010 -0.984372 0.005614
vn 0.961710 -0.269792 -0.048240
vn 0.961474 -0.270635 -0.048204
vn 0.960712 -0.273348 -0.048087
vn 0.960712 -0.273348 -0.048088
vn -0.519354 0.638134 0.568381
vn -0.131700 0.991290 0.000075
vn 0.072614 0.997335 0.007036
vn 0.191754 0.981282 -0.017804
vn -0.736200 -0.628313 -0.251459
vn -0.733767 -0.630925 -0.252032
vn 0.026476 -0.992274 -0.121208
vn 0.072271 -0.993515 -0.087778
vn 0.196230 -0.980549 0.004176
vn 0.963111 -0.264705 -0.048456
vn 0.963136 -0.264615 -0.048460
vn -0.666096 0.745866 0.000401
vn 0.662268 0.215131 -0.717718
s 1
g pCube2
usemtl initialShadingGroup
f 51/75/99 61/91/100 62/93/101 53/77/102
s 2
f 53/77/103 62/93/104 69/104/105 70/106/106
s 3
f 55/79/107 59/89/108 60/90/109 57/81/110
s 4
f 71/108/111 72/109/112 61/92/113 51/83/114
s 5
f 52/76/115 73/111/116 74/113/117 54/78/118
s 6
f 71/107/119 51/75/120 53/77/121 70/105/122
s 3
f 59/89/108 58/82/123 60/90/109
s 4
f 61/92/113 72/109/112 73/110/124 52/84/125
s 1
f 62/93/101 52/76/126 54/78/127
s 2
f 74/112/128 69/104/105 62/93/104 54/78/129
f 64/96/130 63/94/131 59/89/132 55/79/133
s 6
f 57/87/134 65/97/135 64/95/136 55/88/137
s 4
f 57/81/138 60/90/139 66/99/140 65/98/141
f 67/100/142 66/99/140 60/90/139 58/82/143
s 5
f 68/103/144 67/101/145 58/85/146 56/86/147
s 2
f 59/89/132 63/94/131 68/102/148 56/80/149
f 70/106/106 69/104/105 75/114/150 76/116/151
s 6
f 77/117/152 71/107/119 70/105/122 76/115/153
s 4
f 77/118/154 78/119/155 72/109/112 71/108/111
f 73/110/124 72/109/112 78/119/155 79/120/156
s 5
f 74/113/117 73/111/116 79/121/157 80/123/158
s 2
f 80/122/159 75/114/150 69/104/105 74/112/128
f 76/116/151 75/114/150 63/94/131 64/96/130
s 6
f 65/97/135 77/117/152 76/115/153 64/95/136
s 4
f 65/98/141 66/99/140 78/119/155 77/118/154
f 79/120/156 78/119/155 66/99/140 67/100/142
s 5
f 80/123/158 79/121/157 67/101/145 68/103/144
s 2
f 68/102/148 63/94/131 75/114/150 80/122/159
s 1
f 62/93/101 61/91/100 52/76/126
s 3
f 59/89/108 56/80/160 58/82/123
g default
v -6.627233 2.717938 0.362367
v -6.432192 1.766609 0.331593
v -4.588358 -0.050357 0.331593
v -3.441268 -0.294986 0.331593
v -2.294178 -0.294986 0.331593
v -1.147089 -0.294986 0.331593
v 0.000001 -0.294986 0.331593
v 1.169530 -0.235528 0.331593
v 2.317315 -0.157132 0.331593
v 2.889076 -0.152066 0.331593
v 3.805631 0.529118 0.331593
v 4.567364 1.775765 0.331593
v 4.476005 2.922749 0.331593
v -6.302229 2.717980 0.362367
v -5.879529 1.973080 0.331593
v -4.588358 0.539614 0.331593
v -3.441268 0.294986 0.331593
v -2.294178 0.294986 0.331593
v -1.147089 0.294986 0.331593
v 0.000001 0.294986 0.331593
v 1.127557 0.352948 0.331593
v 2.268157 0.430788 0.331593
v 2.531036 0.316841 0.331593
v 3.453345 1.002363 0.331593
v 3.977446 1.767790 0.331593
v 4.037795 2.914775 0.331593
v -6.302229 2.717980 -0.362367
v -5.879529 1.973080 -0.331593
v -4.588358 0.539614 -0.331593
v -3.441268 0.294986 -0.331593
v -2.294178 0.294986 -0.331593
v -1.147089 0.294986 -0.331593
v 0.000001 0.294986 -0.331593
v 1.127557 0.352948 -0.331593
v 2.268157 0.430788 -0.331593
v 2.531036 0.316841 -0.331593
v 3.453345 1.002363 -0.331593
v 3.977446 1.767790 -0.331593
v 4.037795 2.914775 -0.331593
v -6.627233 2.717938 -0.362367
v -6.432192 1.766609 -0.331593
v -4.588358 -0.050357 -0.331593
v -3.441268 -0.294986 -0.331593
v -2.294178 -0.294986 -0.331593
v -1.147089 -0.294986 -0.331593
v 0.000001 -0.294986 -0.331593
v 1.169530 -0.235528 -0.331593
v 2.317315 -0.157132 -0.331593
v 2.889076 -0.152066 -0.331593
v 3.805630 0.529119 -0.331593
v 4.567364 1.775765 -0.331593
v 4.476005 2.922749 -0.331593
vt 0.375000 0.000000
vt 0.395833 0.000000
vt 0.416667 0.000000
vt 0.437500 0.000000
vt 0.458333 0.000000
vt 0.479167 0.000000
vt 0.500000 0.000000
vt 0.520833 0.000000
vt 0.541667 0.000000
vt 0.562500 0.000000
vt 0.583333 0.000000
vt 0.604167 0.000000
vt 0.625000 0.000000
vt 0.375000 0.250000
vt 0.395833 0.250000
vt 0.416667 0.250000
vt 0.437500 0.250000
vt 0.458333 0.250000
vt 0.479167 0.250000
vt 0.500000 0.250000
vt 0.520833 0.250000
vt 0.541667 0.250000
vt 0.562500 0.250000
vt 0.583333 0.250000
vt 0.604167 0.250000
vt 0.625000 0.250000
vt 0.375000 0.500000
vt 0.395833 0.500000
vt 0.416667 0.500000
vt 0.437500 0.500000
vt 0.458333 0.500000
vt 0.479167 0.500000
vt 0.500000 0.500000
vt 0.520833 0.500000
vt 0.541667 0.500000
vt 0.562500 0.500000
vt 0.583333 0.500000
vt 0.604167 0.500000
vt 0.625000 0.500000
vt 0.375000 0.750000
vt 0.395833 0.750000
vt 0.416667 0.750000
vt 0.437500 0.750000
vt 0.458333 0.750000
vt 0.479167 0.750000
vt 0.500000 0.750000
vt 0.520833 0.750000
vt 0.541667 0.750000
vt 0.562500 0.750000
vt 0.583333 0.750000
vt 0.604167 0.750000
vt 0.625000 0.750000
vt 0.375000 1.000000
vt 0.395833 1.000000
vt 0.416667 1.000000
vt 0.437500 1.000000
vt 0.458333 1.000000
vt 0.479167 1.000000
vt 0.500000 1.000000
vt 0.520833 1.000000
vt 0.541667 1.000000
vt 0.562500 1.000000
vt 0.583333 1.000000
vt 0.604167 1.000000
vt 0.625000 1.000000
vt 0.875000 0.000000
vt 0.875000 0.250000
vt 0.125000 0.000000
vt 0.125000 0.250000
vn 0.007859 -0.033402 0.999411
vn 0.000123 -0.000524 1.000000
vn 0.006923 -0.029423 0.999543
vn 0.007859 -0.033402 0.999411
vn 0.000000 0.000000 1.000000
vn 0.000000 0.000000 1.000000
vn 0.000000 0.000000 1.000000
vn 0.000000 0.000000 1.000000
vn 0.000000 0.000000 1.000000
vn 0.000000 0.000000 1.000000
vn 0.000000 0.000000 1.000000
vn 0.000000 0.000000 1.000000
vn 0.000000 0.000000 1.000000
vn 0.000000 0.000000 1.000000
vn 0.000000 0.000000 1.000000
vn 0.000000 0.000000 1.000000
vn 0.000000 0.000000 1.000000
vn 0.000000 0.000000 1.000000
vn 0.000000 0.000000 1.000000
vn 0.000000 0.000000 1.000000
vn -0.000000 0.000000 1.000000
vn -0.000000 0.000000 1.000000
vn -0.000000 0.000000 1.000000
vn -0.000000 0.000000 1.000000
vn 0.000000 0.000000 1.000000
vn 0.000000 0.000000 1.000000
vn 0.869727 0.493533 0.000000
vn 0.787898 0.615806 0.000000
vn 0.787898 0.615806 0.000000
vn 0.869727 0.493533 0.000000
vn 0.566939 0.823760 0.000000
vn 0.566939 0.823760 0.000000
vn 0.106029 0.994363 0.000000
vn 0.106029 0.994363 0.000000
vn 0.000000 1.000000 0.000000
vn 0.000000 1.000000 0.000000
vn 0.000000 1.000000 0.000000
vn 0.000000 1.000000 0.000000
vn -0.025474 0.999676 0.000000
vn -0.025474 0.999676 0.000000
vn -0.059766 0.998212 0.000000
vn -0.059766 0.998212 0.000000
vn 0.025718 0.999669 0.000000
vn 0.025718 0.999669 0.000000
vn -0.434389 0.900725 0.000000
vn -0.434389 0.900725 0.000000
vn -0.708214 0.705998 0.000000
vn -0.708214 0.705998 0.000000
vn -0.956337 0.292265 0.000000
vn -0.956337 0.292265 0.000000
vn -0.998619 0.052542 0.000000
vn -0.998619 0.052542 0.000000
vn 0.007859 -0.033402 -0.999411
vn 0.006923 -0.029423 -0.999543
vn 0.000123 -0.000524 -1.000000
vn 0.007859 -0.033402 -0.999411
vn 0.000000 0.000000 -1.000000
vn 0.000000 0.000000 -1.000000
vn 0.000000 0.000000 -1.000000
vn 0.000000 0.000000 -1.000000
vn 0.000000 0.000000 -1.000000
vn 0.000000 0.000000 -1.000000
vn 0.000000 0.000000 -1.000000
vn 0.000000 0.000000 -1.000000
vn 0.000000 0.000000 -1.000000
vn 0.000000 0.000000 -1.000000
vn 0.000000 0.000000 -1.000000
vn 0.000000 0.000000 -1.000000
vn 0.000000 0.000000 -1.000000
vn 0.000000 0.000000 -1.000000
vn 0.000000 0.000000 -1.000000
vn 0.000000 0.000000 -1.000000
vn 0.000000 0.000000 -1.000000
vn 0.000000 0.000000 -1.000000
vn 0.000000 0.000000 -1.000000
vn 0.000000 0.000000 -1.000000
vn 0.000000 0.000000 -1.000000
vn 0.000000 0.000000 -1.000000
vn -0.979623 -0.200843 0.000000
vn -0.809688 -0.586860 0.000000
vn -0.809688 -0.586860 0.000000
vn -0.979623 -0.200843 0.000000
vn -0.567526 -0.823356 0.000000
vn -0.567526 -0.823356 0.000000
vn -0.106029 -0.994363 0.000000
vn -0.106029 -0.994363 0.000000
vn 0.000000 -1.000000 0.000000
vn 0.000000 -1.000000 0.000000
vn 0.000000 -1.000000 0.000000
vn 0.000000 -1.000000 0.000000
vn 0.025657 -0.999671 0.000000
vn 0.025657 -0.999671 0.000000
vn 0.059384 -0.998235 0.000000
vn 0.059384 -0.998235 0.000000
vn 0.048481 -0.998824 -0.000000
vn 0.048481 -0.998824 -0.000000
vn 0.418724 -0.908114 -0.000001
vn 0.418724 -0.908114 -0.000001
vn 0.754235 -0.656605 -0.000001
vn 0.754234 -0.656605 -0.000001
vn 0.962948 -0.269689 -0.000000
vn 0.962948 -0.269689 -0.000000
vn 0.996843 0.079401 0.000000
vn 0.996843 0.079401 0.000000
vn -0.018196 0.999834 0.000000
vn -0.018196 0.999834 0.000000
vn -0.018196 0.999834 0.000000
vn -0.018196 0.999834 0.000000
vn -0.000128 1.000000 0.000000
vn -0.000128 1.000000 0.000000
vn -0.000128 1.000000 0.000000
vn -0.000128 1.000000 0.000000
s 1
g pCube1
usemtl initialShadingGroup
f 81/124/161 82/125/162 95/138/163 94/137/164
f 82/125/162 83/126/165 96/139/166 95/138/163
f 83/126/165 84/127/167 97/140/168 96/139/166
f 84/127/167 85/128/169 98/141/170 97/140/168
f 85/128/169 86/129/171 99/142/172 98/141/170
f 86/129/171 87/130/173 100/143/174 99/142/172
f 87/130/173 88/131/175 101/144/176 100/143/174
f 88/131/175 89/132/177 102/145/178 101/144/176
f 89/132/177 90/133/179 103/146/180 102/145/178
f 90/133/179 91/134/181 104/147/182 103/146/180
f 91/134/181 92/135/183 105/148/184 104/147/182
f 92/135/183 93/136/185 106/149/186 105/148/184
s 2
f 94/137/187 95/138/188 108/151/189 107/150/190
f 95/138/188 96/139/191 109/152/192 108/151/189
f 96/139/191 97/140/193 110/153/194 109/152/192
f 97/140/193 98/141/195 111/154/196 110/153/194
f 98/141/195 99/142/197 112/155/198 111/154/196
f 99/142/197 100/143/199 113/156/200 112/155/198
f 100/143/199 101/144/201 114/157/202 113/156/200
f 101/144/201 102/145/203 115/158/204 114/157/202
f 102/145/203 103/146/205 116/159/206 115/158/204
f 103/146/205 104/147/207 117/160/208 116/159/206
f 104/147/207 105/148/209 118/161/210 117/160/208
f 105/148/209 106/149/211 119/162/212 118/161/210
s 3
f 107/150/213 108/151/214 121/164/215 120/163/216
f 108/151/214 109/152/217 122/165/218 121/164/215
f 109/152/217 110/153/219 123/166/220 122/165/218
f 110/153/219 111/154/221 124/167/222 123/166/220
f 111/154/221 112/155/223 125/168/224 124/167/222
f 112/155/223 113/156/225 126/169/226 125/168/224
f 113/156/225 114/157/227 127/170/228 126/169/226
f 114/157/227 115/158/229 128/171/230 127/170/228
f 115/158/229 116/159/231 129/172/232 128/171/230
f 116/159/231 117/160/233 130/173/234 129/172/232
f 117/160/233 118/161/235 131/174/236 130/173/234
f 118/161/235 119/162/237 132/175/238 131/174/236
s 4
f 120/163/239 121/164/240 82/177/241 81/176/242
f 121/164/240 122/165/243 83/178/244 82/177/241
f 122/165/243 123/166/245 84/179/246 83/178/244
f 123/166/245 124/167/247 85/180/248 84/179/246
f 124/167/247 125/168/249 86/181/250 85/180/248
f 125/168/249 126/169/251 87/182/252 86/181/250
f 126/169/251 127/170/253 88/183/254 87/182/252
f 127/170/253 128/171/255 89/184/256 88/183/254
f 128/171/255 129/172/257 90/185/258 89/184/256
f 129/172/257 130/173/259 91/186/260 90/185/258
f 130/173/259 131/174/261 92/187/262 91/186/260
f 131/174/261 132/175/263 93/188/264 92/187/262
s off
f 93/136/265 132/189/266 119/190/267 106/149/268
f 120/191/269 81/124/270 94/137/271 107/192/272
